<?xml version="1.0" encoding="utf-8"?>
<!-- Generator: Adobe Illustrator 22.1.0, SVG Export Plug-In . SVG Version: 6.00 Build 0)  -->
<svg version="1.1" id="Layer_1" xmlns="http://www.w3.org/2000/svg" xmlns:xlink="http://www.w3.org/1999/xlink" x="0px" y="0px"
	 viewBox="0 0 1366 564" style="enable-background:new 0 0 1366 564;" xml:space="preserve">
<style type="text/css">
	.st0{fill:#FFFFFF;}
</style>
<path class="st0" d="M395.9,407.7L395.9,407.7l0.1,0.1L395.9,407.7z M394.6,406.1l0.1,0.1L394.6,406.1z M393.2,402.1v0.2V402.1z
	 M393.2,365.6v0.2V365.6z M395.9,360.1L395.9,360.1L395.9,360.1L395.9,360.1z M403.7,399.4l-0.1-0.2L403.7,399.4z M404.2,400.1
	l-0.1-0.1L404.2,400.1z M428.1,409.2v-8.3h-20.4h-0.1c-1,0-2.1,0-2.9-0.5l-0.6-0.5l-0.1-0.1l-0.4-0.6V399l-0.3-1.9v-8.2l21.6-0.7
	l0,0v-8.4l-21.6-0.7v-8.2c0-2,0-4.1,3.8-4.1h21.1v-8.4l0,0c-4.6-0.7-23.3-1.2-23.5-1.2h-0.3c-1.1,0-2.4,0.1-3.7,0.4l0,0l-1,0.3l0,0
	c-1.2,0.4-2.3,1-3.4,1.8l-0.2,0.2l-0.2,0.2l-0.2,0.2l-1,1.3l-0.2,0.4l-0.6,1.3l-0.2,0.5l-0.4,1.7l-0.1,0.7l-0.1,1.7v0.4v31.6v0.5
	l0.1,1.6l0.1,0.7l0.4,1.5l0.1,0.4l0.7,1.5l0.3,0.5l1,1.2l0.1,0.1l0.5,0.4l0.2,0.2l0.7,0.5l0.3,0.2l0.7,0.4l0.3,0.1l0.7,0.3l0.3,0.1
	l0.7,0.2l0.3,0.1l0.8,0.2h0.1c1,0.2,1.9,0.2,2.8,0.2h1C405.5,410.4,424,409.8,428.1,409.2L428.1,409.2z"/>
<path class="st0" d="M476.9,397.2L476.9,397.2L476.9,397.2z M476.1,399.9L476.1,399.9L476.1,399.9z M467.6,387
	c0,6.7-1.1,10.4-3.1,12.3l-0.1,0.1l-0.6,0.5l-0.3,0.2l-0.5,0.3l-0.3,0.1l-0.6,0.2l-0.2,0.1c-1.2,0.4-2.6,0.5-4.1,0.5
	c-3.6,0-6.3-0.4-8-2.6c-1.6-2-2.3-5.5-2.3-11.6v-29.8h-10.2V387v1.4v1.2l0.1,1.6l0.2,2.1l0.1,1.2l0.2,1.4l0.2,1.3l0.3,1.5l0.2,0.8
	l0.6,1.7l0.2,0.6l0.7,1.5l0.3,0.5l0.8,1.3l0.3,0.4l0.9,1.1l0.1,0.1l0.2,0.2l1.1,0.9l0.4,0.3l1.1,0.7l0.4,0.2l1.2,0.5l0.5,0.2
	l1.1,0.3l0.7,0.1l1.1,0.2c2,0.3,4,0.3,6,0.3h0.7h0.7c1.8,0,3.7,0,5.7-0.2l0.5-0.1l1-0.1l1-0.2l0.6-0.1l1.2-0.4l0.5-0.2l1.1-0.5
	l0.5-0.3l1-0.7l0.3-0.2l0.2-0.2l1.3-1.1l0.3-0.4l1-1.3l0.3-0.5l0.8-1.5l0.3-0.7l0.7-1.6l0.3-0.8l0.5-1.8l0.2-1l0.4-2l0.1-1.2
	l0.2-2.2l0.1-1.3l0.1-2v-0.9v-29.8h-10.3L467.6,387L467.6,387z"/>
<path class="st0" d="M516.7,358.1L516.7,358.1L516.7,358.1z M512.9,380.5l-0.1,0.1L512.9,380.5z M513.6,379.8L513.6,379.8
	L513.6,379.8z M512.2,366.7l0.7,0.4l0.3,0.2l0.4,0.5l0.3,0.5l0.3,0.5l0.2,0.7l0.2,0.6l0.1,0.8l0.1,0.9v0.1l0.1,1.7
	c0,6.3-1.7,7.4-5.2,7.4h-12.1v-15h12.1c0.9,0,1.7,0.1,2.4,0.4L512.2,366.7z M497.5,389.1l8.9,1l8.8,20.1l0,0h11.5l-10.1-20.8h0.1
	c1.5-0.5,3.6-1.1,5.3-3.3l0.5-0.7l0.1-0.1l0.5-0.8l0.2-0.3l0.4-0.8l0.2-0.4l0.3-0.9l0.1-0.5l0.3-1.1l0.1-0.4l0.2-1.5v-0.2
	c0.2-1.3,0.2-2.8,0.2-4.3c0-1.6-0.1-3-0.3-4.3l0,0l-0.3-1.8l-0.1-0.5l-0.3-1.2l-0.2-0.6l-0.4-1l-0.2-0.4l-0.5-1l-0.1-0.1l-1.7-2.1
	l-0.2-0.1l-1.6-1.2l-0.4-0.3l-1.9-0.9l-0.5-0.2l-2.3-0.5l-0.5-0.1c-0.9-0.1-1.8-0.2-2.8-0.2h-0.3h-23.3v53h10.2L497.5,389.1
	L497.5,389.1z"/>
<path class="st0" d="M565.3,358.5l0.8,0.3L565.3,358.5z"/>
<path class="st0" d="M568.3,360.1l0.5,0.4L568.3,360.1z"/>
<path class="st0" d="M533.8,371l0.3-1.5L533.8,371z M533.2,374.1l0.2-1.5L533.2,374.1z M532.9,377.1l0.1-1.1L532.9,377.1z
	 M534.6,368.1l0.4-1.2L534.6,368.1z M536,364.7l-0.3,0.7L536,364.7z M537.2,362.8L537.2,362.8L537.2,362.8z M544.9,409.7h-0.2H544.9
	z M541.3,408.4l-0.2-0.1L541.3,408.4z M543.1,409.1l-0.4-0.2L543.1,409.1z M562.2,398.7l-0.3,0.3l-0.5,0.4l-0.3,0.2l-0.6,0.3
	l-0.4,0.2l-0.4,0.2l-0.8,0.3h-0.2c-1.2,0.3-2.8,0.5-4.8,0.5c-2.1,0-3.9-0.1-5.4-0.6l0,0c-1.5-0.5-2.7-1.2-3.6-2.5
	c-0.6-0.9-1-2-1.4-3.4l0,0c-0.6-2.4-0.8-5.7-0.8-10.5c0-8.3,0.8-12.8,2.7-15.3c1.9-2.4,4.8-2.6,8.5-2.6c4.3,0,6.9,0.4,8.6,2.7
	c1.8,2.4,2.6,7,2.6,15.1c0,7.3-0.7,11.5-2.4,13.9l-0.3,0.4L562.2,398.7z M572.2,365.2l-0.2-0.4L572.2,365.2z M573.3,367.8L573,367
	L573.3,367.8z M574.7,373.7l-0.2-1.1L574.7,373.7z M575.1,376.7V376V376.7z M574.1,370.6l-0.2-1.1L574.1,370.6z M574.6,394.9
	l0.1-0.5L574.6,394.9z M574,397.8l0.1-0.6L574,397.8z M573.2,400.3l0.1-0.4L573.2,400.3z M572.2,402.5L572.2,402.5L572.2,402.5z
	 M568.1,407.3l0.2-0.1l1-0.9l-0.3,0.2l0.4-0.3l-0.1,0.1l0.3-0.3c0.9-0.9,1.8-2.1,2.5-3.3l0,0l1-2.1v-0.1c1.6-4,2.3-9.4,2.3-16.5
	c0-6-0.5-10.9-1.6-14.7l0,0c-0.2-0.9-0.5-1.7-0.8-2.5l-0.1-0.2l-0.9-2l-0.1-0.2c-0.7-1.2-1.5-2.3-2.4-3.2l-0.7-0.6l0.4,0.3l-1-0.8
	l0.2,0.1l-0.7-0.5h0.1l-1.1-0.7l0.2,0.1l-0.5-0.3l0,0l-0.2-0.1l0,0l-1-0.4l0.2,0.1l-1.2-0.4h0.1H564h0.1l-1.5-0.4
	c-2.3-0.5-4.9-0.8-8.7-0.8c-6.5,0-11.6,0.7-15.3,4.3l-1.3,1.5v0.1l-1.1,1.7l-0.1,0.2l-1,2.2l0,0c-1.7,4.2-2.5,9.8-2.5,17.3
	c0,4.4,0.3,8.1,0.9,11.3l0.1,0.4l0.5,2.4l0.2,0.7l0.6,1.8l0.3,0.7l0.7,1.5l0.3,0.5c0.6,1.1,1.3,2,2.2,2.8c3.6,3.5,8.6,4.2,15.6,4.2
	c1.3,0,2.7-0.1,4-0.2l1.2-0.1l1.3-0.2l2.3-0.4l0.5-0.1l0.2-0.1l0.9-0.3l0.5-0.2l0.7-0.3l-0.4,0.1
	C566.3,408.4,567.2,407.9,568.1,407.3l-0.2,0.2L568.1,407.3z"/>
<path class="st0" d="M564.1,358L564.1,358L564.1,358z"/>
<path class="st0" d="M566.8,359.2l0.8,0.5L566.8,359.2z"/>
<path class="st0" d="M610,380.1L610,380.1L610,380.1z"/>
<path class="st0" d="M615,358.8L615,358.8L615,358.8z M621.8,375.3v0.7V375.3z M621.5,378.3l0.1-0.7L621.5,378.3z M621.1,380.3
	l0.1-0.5L621.1,380.3z M620.7,382.1l0.1-0.3L620.7,382.1z M620,383.8l0.1-0.2L620,383.8z M619.3,385.2l0.1-0.2L619.3,385.2z
	 M618.4,386.5l0.2-0.2L618.4,386.5z M617.5,387.5l-0.1,0.1L617.5,387.5L617.5,387.5z M616.1,388.6l0.3-0.2L616.1,388.6z
	 M614.9,389.4l0.3-0.1L614.9,389.4z M613.6,389.9l0.3-0.1L613.6,389.9z M612.2,390.2l0.3-0.1L612.2,390.2z M611,390.5L611,390.5
	L611,390.5z M606.7,366.2h0.5H606.7z M607.8,366.4l0.4,0.1L607.8,366.4z M608.8,366.8l0.3,0.2L608.8,366.8z M609.7,367.5l0.2,0.2
	L609.7,367.5z M610.4,368.4l0.1,0.3L610.4,368.4z M611,369.7l0.1,0.2L611,369.7z M611.4,371.4v0.1V371.4z M611.2,377.5L611.2,377.5
	L611.2,377.5z M607.4,381.6H607H607.4z M608.5,381.3l-0.5,0.2L608.5,381.3z M609.4,380.7L609,381L609.4,380.7z M610.6,379.1
	l-0.1,0.3l-0.5,0.7l0.2-0.2l-0.3,0.3l0,0c-0.5,0.6-1.2,1-2.1,1.3l0,0l-1.5,0.2h-11.9v-15.5h11.9l1.2,0.1h0.1l0.9,0.3l0.2,0.1
	l0.7,0.4l0.3,0.2l0.5,0.5l0.3,0.4l0.3,0.6l0.2,0.6l0.2,0.7l0.1,0.7l0.2,0.9l0.1,0.9l0.1,1v0.6l-0.1,1.3v0.5l-0.2,1.3l-0.1,0.3
	l-0.3,1l-0.1,0.3v-0.1L610.6,379.1l0.1-0.1L610.6,379.1z M594.3,389.2c0.6,0.2,9.9,1.3,12.7,1.4c1.8,0.1,4,0,6-0.6l0.2-0.1l1-0.4
	l0.3-0.1l0.9-0.4l0.4-0.2l0.8-0.5l0.4-0.3l0.6-0.5l0.2-0.2l0.2-0.2l0.8-0.9l0.2-0.3l0.6-1l0.2-0.4l0.5-1.1l0.2-0.5l0.4-1.3l0.2-0.6
	l0.3-1.6l0.1-0.5l0.3-2.2v-0.1c0.1-0.9,0.1-1.8,0.1-2.8c0-1.7-0.1-3.3-0.4-4.7l-0.1-0.4l-0.3-1.5l-0.2-0.7l-0.4-1.1l-0.3-0.7
	l-0.4-0.9l-0.3-0.6l-0.5-0.8l-0.3-0.4l-0.7-1l0,0l-1-0.9l-0.2-0.1l-1.5-0.9l-0.5-0.3l-1.9-0.7l-0.4-0.1l-2.2-0.4l-0.4-0.1l-2.5-0.1
	h-0.3h-23v53h10.2L594.3,389.2L594.3,389.2z"/>
<path class="st0" d="M631.2,365.6v0.2V365.6z M633.9,360.1L633.9,360.1L633.9,360.1L633.9,360.1z M641.3,398.3L641.3,398.3
	L641.3,398.3z M641.7,399.4l-0.1-0.2L641.7,399.4z M642.2,400.1L642,400L642.2,400.1z M633.8,407.7L633.8,407.7l0.1,0.1L633.8,407.7
	z M632.6,406.1l0.1,0.1L632.6,406.1z M631.2,402.1v0.2V402.1z M631.1,401.8l0.1,0.7l0.4,1.5l0.1,0.4l0.7,1.5l0.3,0.4l1,1.2l0.1,0.1
	l0.5,0.4l0.2,0.2l0.7,0.5l0.3,0.2l0.7,0.4l0.3,0.1l0.7,0.3l0.3,0.1l0.7,0.2l0.3,0.1l0.8,0.2h0.1c1,0.2,1.9,0.2,2.8,0.2h1
	c0.2,0,18.6-0.7,22.7-1.2l0,0V401h-20.5h-0.1c-1,0-2.1,0-2.9-0.5l-0.6-0.5v-0.1l-0.4-0.6v-0.1l-0.3-1.9v-8.2l21.6-0.7l0,0V380
	l-21.6-0.7v-8.2c0-2,0-4,3.8-4H666v-8.4l0,0c-4.6-0.6-23.3-1.1-23.5-1.2h-0.3c-1.1,0-2.4,0.1-3.7,0.4l0,0l-1,0.3l0,0
	c-1.2,0.4-2.3,1-3.4,1.9l-0.2,0.2l-0.2,0.2l-0.2,0.2l-1,1.3l-0.2,0.4l-0.6,1.3l-0.2,0.5l-0.4,1.7l-0.1,0.7l-0.1,1.7v0.4v31.6v0.5
	L631.1,401.8z"/>
<path class="st0" d="M703,389.5h-12.4l6.4-18.9L703,389.5z M702.7,357.2h-11.6l-18,53l0,0h11l3.9-11.7h17.5l3.8,11.7l0,0H720
	L702.7,357.2L702.7,357.2z"/>
<polygon class="st0" points="759.5,391.4 738.4,357.2 728,357.2 728,410.2 738.3,410.2 738.3,376.3 759.5,410.2 769.7,410.2
	769.7,357.2 759.5,357.2 "/>
<path class="st0" d="M819.5,408l-0.4-0.3L819.5,408z M817.6,406.5L817.6,406.5L817.6,406.5z M821.3,409l-0.5-0.2L821.3,409z
	 M823,409.6l-0.4-0.1L823,409.6z M821.7,391.4L821.7,391.4z M829.2,356.6c-1.8,0-3.4,0.2-4.9,0.5l-0.4,0.1l-1.7,0.4l-0.9,0.4l-1,0.4
	l-0.9,0.5l-0.8,0.5l-0.6,0.5l-0.9,0.7l-0.2,0.2c-0.8,0.8-1.6,1.8-2.2,2.8c-0.7,1.1-1.2,2.4-1.7,3.8l-0.1,0.2l-0.6,2l-0.1,0.6
	l-0.4,1.8l-0.1,0.7l-0.3,1.9l-0.1,0.6c-0.3,2.5-0.4,5.2-0.4,8.3c0,8.9,1.3,15.4,4,19.8c3,4.8,7.6,7.2,14.1,7.3h2.1h0.6
	c1.2,0,2.3,0,3.3-0.1l1.5-0.1c1.1-0.1,2.1-0.2,3.1-0.3l1.3-0.2c1-0.1,1.9-0.3,2.9-0.5l1-0.2l2.3-0.6l0.5-0.1l0,0v-7.9l0,0
	c-0.1,0-8.6,0.6-16.2,0.6c-4.1,0-6.7-1.4-8.3-4.3c-1.4-2.7-2-6.7-2-13.2c0-8,0.7-12.5,2.4-14.9c1.6-2.4,4.1-2.8,8-2.8
	c5.6,0,12.4,0.6,15.9,1h0.2l0,0v-8l0,0C841.9,357.3,836.5,356.6,829.2,356.6"/>
<path class="st0" d="M887.1,358.5l0.8,0.3L887.1,358.5z"/>
<path class="st0" d="M890,360.1l0.5,0.4L890,360.1z"/>
<path class="st0" d="M855.5,371l0.4-1.5L855.5,371z M855,374.1l0.2-1.5L855,374.1z M854.6,377.1l0.1-1.1L854.6,377.1z M856.3,368.1
	l0.4-1.2L856.3,368.1z M857.8,364.7l-0.3,0.7L857.8,364.7z M859,362.8L859,362.8L859,362.8z M866.7,409.7h-0.2H866.7z M863.1,408.4
	l-0.2-0.1L863.1,408.4z M864.8,409.1l-0.4-0.2L864.8,409.1z M884,398.7l-0.3,0.3l-0.5,0.4l-0.3,0.2l-0.6,0.3l-0.4,0.2l-0.4,0.2
	l-0.8,0.3h-0.2c-1.2,0.3-2.8,0.5-4.8,0.5c-2.1,0-3.9-0.1-5.4-0.6h-0.1c-1.5-0.4-2.7-1.2-3.6-2.5c-0.6-0.9-1-2-1.4-3.4l0,0
	c-0.6-2.4-0.8-5.7-0.8-10.6c0-8.3,0.8-12.8,2.7-15.3c1.9-2.4,4.8-2.6,8.5-2.6c4.3,0,6.9,0.4,8.6,2.7c1.8,2.4,2.6,6.9,2.6,15.1
	c0,7.3-0.7,11.5-2.4,13.9l-0.3,0.4L884,398.7z M894,365.2l-0.2-0.4L894,365.2z M895.1,367.8l-0.3-0.8L895.1,367.8z M896.4,373.7
	l-0.1-1L896.4,373.7z M896.8,376.6V376V376.6z M895.9,370.6l-0.2-1L895.9,370.6z M896.3,394.9l0.1-0.4L896.3,394.9z M895.7,397.8
	l0.1-0.5L895.7,397.8z M894.9,400.3l0.1-0.4L894.9,400.3z M893.9,402.5L893.9,402.5L893.9,402.5z M891,406.3l-0.3,0.2L891,406.3
	L891,406.3l0.3-0.3c0.9-0.9,1.7-2,2.4-3.3l0,0l1-2.1v-0.1c1.6-4,2.3-9.4,2.3-16.5c0-6-0.5-10.9-1.6-14.7l0,0
	c-0.2-0.9-0.5-1.7-0.8-2.5l-0.1-0.2l-0.9-2l-0.2-0.2c-0.7-1.2-1.5-2.3-2.4-3.2l-0.7-0.6l0.4,0.3l-1-0.8l0.2,0.1l-0.7-0.5h0.1
	l-1.1-0.7l0.2,0.1l-0.5-0.3l-0.2-0.1l0,0l-1-0.4l0.2,0.1l-1.2-0.4h0.1l-0.2-0.1h0.1l-1.5-0.4c-2.3-0.5-4.9-0.8-8.7-0.8
	c-6.5,0-11.6,0.7-15.3,4.3l-1.3,1.5v0.1l-1.1,1.7l-0.1,0.2l-1,2.2l0,0c-1.7,4.2-2.5,9.8-2.5,17.3c0,4.4,0.3,8.2,0.8,11.3l0.1,0.4
	l0.6,2.5l0.2,0.6l0.6,1.9l0.3,0.7l0.7,1.5l0.3,0.5c0.6,1.1,1.4,2.1,2.2,2.9c3.6,3.5,8.6,4.2,15.6,4.2c1.4,0,2.7,0,4-0.1l1.2-0.1
	l1.3-0.2l2.3-0.4l0.4-0.1l0.3-0.1l0.8-0.2l0.7-0.2l0.7-0.3l-0.4,0.1c1-0.4,1.9-0.9,2.7-1.5l-0.2,0.1l0.2-0.2l0.2-0.1L891,406.3z"/>
<path class="st0" d="M885.9,358L885.9,358L885.9,358z"/>
<path class="st0" d="M888.5,359.2l0.8,0.5L888.5,359.2z"/>
<path class="st0" d="M938.2,358.5l0.7,0.3L938.2,358.5z"/>
<path class="st0" d="M939.6,359.2l0.8,0.5L939.6,359.2z"/>
<path class="st0" d="M941.1,360.1l0.4,0.4L941.1,360.1z"/>
<path class="st0" d="M937,358L937,358L937,358z"/>
<path class="st0" d="M945.1,365.1l-0.2-0.4L945.1,365.1z M946.1,367.8l-0.3-0.8L946.1,367.8z M947.5,373.8l-0.2-1.1L947.5,373.8z
	 M947.9,376.8l-0.1-0.7L947.9,376.8z M947,370.7l-0.2-1.1L947,370.7z M947.9,391.6L947.9,391.6L947.9,391.6z M947.4,394.9l0.1-0.6
	L947.4,394.9z M946.8,397.8l0.1-0.6L946.8,397.8z M946,400.3l0.1-0.4L946,400.3z M945,402.5l0.1-0.1L945,402.5z M906.6,371l0.3-1.4
	L906.6,371z M906.1,374l0.2-1.4L906.1,374z M905.7,377l0.1-0.9L905.7,377z M907.4,368.1l0.4-1.1L907.4,368.1z M914.2,408.4l-0.2-0.1
	L914.2,408.4z M915.9,409.1l-0.4-0.2L915.9,409.1z M917.7,409.7h-0.2H917.7z M935.6,397.9l-0.3,0.4l-0.3,0.3l-0.3,0.3l-0.5,0.4
	l-0.3,0.2l-0.6,0.3l-0.4,0.2l-0.4,0.2l-0.8,0.3h-0.1c-1.2,0.3-2.8,0.5-4.8,0.5c-2.1,0-3.9-0.1-5.4-0.6l0,0c-1.5-0.5-2.7-1.2-3.6-2.5
	c-0.6-0.9-1-2-1.4-3.4l0,0c-0.6-2.4-0.8-5.7-0.8-10.6c0-8.3,0.8-12.8,2.7-15.3c1.9-2.4,4.8-2.6,8.6-2.6c4.3,0,6.9,0.4,8.6,2.7
	c1.8,2.4,2.6,7,2.6,15.1C938,391.4,937.3,395.5,935.6,397.9 M908.8,364.7l-0.3,0.6L908.8,364.7z M909.1,364.3l-0.2,0.2l-1,2.1v0.1
	c-1.7,4.2-2.5,9.8-2.5,17.3c0,4.4,0.3,8.1,0.9,11.3l0.1,0.5l0.5,2.4l0.2,0.7l0.6,1.8l0.3,0.7l0.7,1.5l0.3,0.5c0.6,1.1,1.3,2,2.2,2.8
	c3.6,3.5,8.6,4.2,15.6,4.2c1.3,0,2.7-0.1,4-0.2l1.2-0.1l1.3-0.2l2.3-0.4l0.4-0.1l0.3-0.1l0.8-0.2l0.7-0.2l0.7-0.3l-0.4,0.1
	c1-0.4,1.9-0.9,2.7-1.5l-0.2,0.1l0.2-0.2l0.2-0.1l1-0.9l-0.3,0.3l0.4-0.4l-0.1,0.1l0.3-0.3c1.4-1.4,2.6-3.2,3.4-5.5l0,0
	c1.6-4,2.3-9.4,2.3-16.5c0-6-0.5-10.9-1.6-14.7l0,0c-0.3-0.9-0.5-1.7-0.8-2.5l-0.1-0.2l-0.9-2l-0.2-0.3c-0.7-1.2-1.5-2.3-2.4-3.2
	l-0.7-0.6l0.4,0.3l-1-0.8l0.2,0.1l-0.7-0.5h0.1l-1.1-0.7l0.2,0.1l-0.7-0.4l0,0l-1-0.4l0.2,0.1L937,358h0.1l-0.2-0.1h0.1l-1.5-0.4
	c-2.3-0.5-4.9-0.8-8.7-0.8c-6.5,0-11.6,0.7-15.3,4.3l-1.2,1.4l-0.1,0.2L909.1,364.3z"/>
<path class="st0" d="M982.8,380.1L982.8,380.1L982.8,380.1z"/>
<path class="st0" d="M987.8,358.8L987.8,358.8L987.8,358.8z M994.6,375.6v0.3V375.6z M994.3,378.3l0.1-0.5L994.3,378.3z M994,380.3
	l0.1-0.4L994,380.3z M993.5,382.1l0.1-0.3L993.5,382.1z M992.9,383.7l0.1-0.2L992.9,383.7z M992.1,385.2l0.1-0.1L992.1,385.2z
	 M991.2,386.5l0.1-0.2L991.2,386.5z M990.3,387.5l-0.2,0.1L990.3,387.5L990.3,387.5z M989.1,388.5l0.2-0.1L989.1,388.5z
	 M986.9,389.7L986.9,389.7L986.9,389.7z M988,389.2l0.1-0.1L988,389.2z M979.6,366.2h0.5H979.6z M980.7,366.4l0.4,0.1L980.7,366.4z
	 M981.6,366.8l0.3,0.2L981.6,366.8z M982.5,367.5l0.2,0.3L982.5,367.5z M983.2,368.4l0.1,0.3L983.2,368.4z M983.8,369.7l0.1,0.2
	L983.8,369.7z M984.2,371.4v0.2V371.4z M980.2,381.6h-0.4H980.2z M981.3,381.3l-0.5,0.2L981.3,381.3z M982.2,380.7l-0.4,0.3
	L982.2,380.7z M984,377.7l-0.3,1l-0.1,0.4V379l-0.1,0.2v-0.1l-0.1,0.2l-0.1,0.2l-0.5,0.7l0.2-0.2l-0.3,0.3v-0.1
	c-0.5,0.6-1.2,1-2.1,1.3l0,0l-1.5,0.2h-11.9v-15.5H979l1.2,0.1h0.1l0.9,0.3l0.2,0.1l0.7,0.4l0.2,0.2l0.5,0.5l0.3,0.4l0.4,0.6
	l0.2,0.5l0.2,0.8l0.1,0.7l0.2,0.9v0.7l0.1,1.1v0.6l-0.1,1.2v0.6l-0.2,1.3L984,377.7v-0.1V377.7L984,377.7L984,377.7z M967.1,389.2
	c0.6,0.2,9.9,1.3,12.7,1.4h1.2c2.4,0,5-0.3,7.4-1.7h0.1l1-0.7l0.2-0.2l0.7-0.6l0.2-0.2l0.3-0.3l0.7-0.9l0.2-0.4l0.6-1l0.2-0.5
	l0.5-1.1l0.2-0.6l0.4-1.2l0.2-0.7l0.3-1.5l0.1-0.6l0.2-2.1v-0.2c0.1-0.9,0.1-1.8,0.1-2.8c0-1.7-0.1-3.3-0.4-4.7l-0.1-0.5l-0.3-1.4
	l-0.2-0.7l-0.3-1.1l-0.3-0.7l-0.4-0.9l-0.4-0.6l-0.5-0.8l-0.4-0.4l-0.6-0.7l-0.1-0.1l-0.9-0.8l-0.2-0.1l-1.5-1l-0.4-0.2l-1.9-0.7
	l-0.4-0.1l-2.2-0.4l-0.5-0.1l-2.5-0.1h-0.3h-23v53H967v-21H967.1z"/>
<path class="st0" d="M1004,365.7v0.2V365.7z M1006.7,360.1L1006.7,360.1L1006.7,360.1L1006.7,360.1z M1014.1,398.3L1014.1,398.3
	L1014.1,398.3z M1014.5,399.4l-0.1-0.2L1014.5,399.4z M1015,400.1l-0.2-0.1L1015,400.1z M1006.7,407.7L1006.7,407.7l0.1,0.1
	L1006.7,407.7z M1005.4,406.1l0.1,0.1L1005.4,406.1z M1004,402.1v0.2V402.1z M1004,401.8l0.1,0.7l0.4,1.4l0.1,0.4l0.7,1.4l0.3,0.5
	l1,1.2l0.1,0.1l0.5,0.4l0.2,0.2l0.7,0.5l0.3,0.2l0.7,0.4l0.3,0.1l0.7,0.3l0.3,0.1l0.7,0.2l0.3,0.1l0.8,0.2h0.1
	c1,0.1,1.9,0.2,2.8,0.2h1c0.2,0,18.6-0.7,22.7-1.2l0,0v-8.4h-20.4h-0.1c-1,0-2.1,0-2.9-0.5l-0.6-0.5v-0.1l-0.4-0.6V399l-0.3-2v-8.2
	l21.5-0.7l0,0v-8.4L1014,379v-8.2c0-2,0-4,3.8-4h21.1v-8.4l0,0c-4.6-0.6-23.3-1.2-23.5-1.2h-0.3c-1.1,0-2.4,0.1-3.7,0.4l0,0l-1,0.3
	l0,0c-1.2,0.4-2.4,1-3.4,1.9l-0.2,0.2l-0.2,0.2l-0.2,0.2l-1,1.3l-0.2,0.4l-0.6,1.3l-0.2,0.5l-0.4,1.7l-0.1,0.7l-0.1,1.7v0.4V400v0.5
	L1004,401.8z"/>
<path class="st0" d="M1076.5,358.1L1076.5,358.1L1076.5,358.1z M1072.7,380.5L1072.7,380.5L1072.7,380.5z M1073.5,379.8
	L1073.5,379.8L1073.5,379.8z M1071.8,366.6l1.5,1.1c1,1.2,1.4,3.2,1.4,6c0,6.3-1.7,7.4-5.2,7.4h-12.1v-15h12.1
	C1070.4,366.2,1071.2,366.3,1071.8,366.6L1071.8,366.6z M1057.4,389.1l8.9,1l8.8,20.1l0,0h11.5l-10.1-20.8h0.1
	c1.5-0.5,3.6-1.1,5.3-3.3l0.5-0.8v-0.1l0.5-0.8l0.1-0.3l0.4-0.9l0.2-0.4l0.3-1l0.1-0.4l0.3-1.2l0.1-0.4l0.2-1.6v-0.1
	c0.2-1.3,0.3-2.8,0.3-4.4c0-2.3-0.2-4.4-0.6-6.2l-0.1-0.4l-0.4-1.2l-0.2-0.5l-0.4-1l-0.2-0.4l-0.5-1v-0.1l-1.7-2.2l-0.2-0.1
	l-1.5-1.2l-0.4-0.3l-1.9-0.9l-0.5-0.2l-2.3-0.5l-0.5-0.1c-0.9-0.1-1.8-0.2-2.8-0.2h-0.3h-23.3v53h10.2L1057.4,389.1L1057.4,389.1z"
	/>
<path class="st0" d="M1122.6,389.5h-12.4l6.4-18.9L1122.6,389.5z M1128.8,410.2h10.9l-17.3-53l0,0h-11.6l-18,53l0,0h11l3.9-11.7
	h17.5L1128.8,410.2L1128.8,410.2z"/>
<polygon class="st0" points="1152.9,410.2 1163.2,410.2 1163.2,366.5 1178,366.5 1178,357.2 1138.5,357.2 1138.5,366.5
	1152.9,366.5 "/>
<rect x="1186.5" y="357.2" class="st0" width="10.2" height="53"/>
<path class="st0" d="M1240.3,359.2l0.8,0.5L1240.3,359.2z"/>
<path class="st0" d="M1237.6,358L1237.6,358L1237.6,358z"/>
<path class="st0" d="M1245.7,365.1l-0.2-0.4L1245.7,365.1z M1246.8,367.7l-0.2-0.7L1246.8,367.7z M1248.2,373.6l-0.1-1L1248.2,373.6
	z M1248.6,376.6V376V376.6z M1247.6,370.6l-0.2-1L1247.6,370.6z M1248.1,394.9l0.1-0.4L1248.1,394.9z M1247.5,397.8l0.1-0.5
	L1247.5,397.8z M1246.7,400.3l0.1-0.4L1246.7,400.3z M1245.7,402.5L1245.7,402.5L1245.7,402.5z M1207.3,371l0.3-1.5L1207.3,371z
	 M1206.7,374.1l0.2-1.5L1206.7,374.1z M1206.4,377.1l0.1-1L1206.4,377.1z M1208.1,368.1l0.4-1.1L1208.1,368.1z M1209.5,364.7
	l-0.3,0.7L1209.5,364.7z M1214.9,408.4l-0.2-0.1L1214.9,408.4z M1216.6,409.1l-0.4-0.2L1216.6,409.1z M1218.4,409.7h-0.2H1218.4z
	 M1236.3,397.9l-0.3,0.4l-0.3,0.4l-0.3,0.3l-0.5,0.4l-0.3,0.2l-0.6,0.3l-0.4,0.2l-0.4,0.2l-0.8,0.3h-0.2c-1.2,0.3-2.8,0.5-4.8,0.5
	c-2.1,0-3.9-0.1-5.4-0.6h-0.1c-1.5-0.4-2.7-1.2-3.6-2.5c-0.6-0.9-1-1.9-1.4-3.3v-0.1c-0.6-2.4-0.8-5.7-0.8-10.6
	c0-8.3,0.8-12.8,2.7-15.3c1.9-2.4,4.8-2.6,8.5-2.6c4.3,0,6.9,0.4,8.6,2.7c1.8,2.4,2.6,6.9,2.6,15.1
	C1238.7,391.4,1238,395.5,1236.3,397.9 M1210.7,362.8L1210.7,362.8L1210.7,362.8z M1209.7,364.3l-0.1,0.2l-1,2.2l0,0
	c-1.7,4.2-2.5,9.8-2.5,17.3c0,4.4,0.3,8.2,0.9,11.3l0.1,0.4l0.5,2.5l0.2,0.7l0.6,1.8l0.3,0.7l0.7,1.5l0.3,0.5
	c0.6,1.1,1.4,2.1,2.2,2.9c3.6,3.5,8.6,4.2,15.6,4.2c1.3,0,2.7,0,4-0.1l1.2-0.1l1.3-0.2l2.3-0.4l0.4-0.1l0.3-0.1l0.8-0.2l0.7-0.2
	l0.7-0.3l-0.4,0.1c1-0.4,1.9-0.9,2.7-1.5l-0.2,0.1l0.2-0.2l0.2-0.1l1-0.9l-0.3,0.2l0.4-0.3l-0.1,0.1l0.3-0.3c0.9-0.9,1.7-2,2.4-3.3
	l0,0l1-2.1v-0.1c1.6-4,2.3-9.4,2.3-16.5c0-6-0.5-10.9-1.6-14.7v-0.1l-0.8-2.5l-0.1-0.3l-0.9-1.9l-0.2-0.3l-1-1.6l0,0l-1.3-1.5
	l-0.7-0.6l0.4,0.3l-1-0.8l0.2,0.1l-0.7-0.5l0.1,0.1l-1.1-0.7l0.2,0.1l-0.5-0.3l0,0l-0.2-0.1l0,0l-1-0.4l0.2,0.1l-1.2-0.4h0.1
	l-0.2-0.1h0.1l-1.5-0.4c-2.3-0.5-4.9-0.8-8.7-0.8c-6.5,0-11.6,0.7-15.3,4.3l-1.3,1.5l-0.1,0.1L1209.7,364.3z"/>
<path class="st0" d="M1238.8,358.5l0.7,0.3L1238.8,358.5z"/>
<path class="st0" d="M1241.8,360.1l0.4,0.4L1241.8,360.1z"/>
<polygon class="st0" points="1268.6,376.3 1289.8,410.2 1300,410.2 1300,357.2 1289.8,357.2 1289.8,391.4 1268.7,357.2
	1258.3,357.2 1258.3,410.2 1268.6,410.2 "/>
<rect x="393" y="443.6" class="st0" width="10.2" height="53.2"/>
<polygon class="st0" points="444.7,477.9 423.6,443.5 413.2,443.5 413.2,496.8 423.5,496.8 423.5,462.8 444.7,496.8 455,496.8
	455,443.5 444.7,443.5 "/>
<path class="st0" d="M510.4,495.9L510.4,495.9L510.4,495.9z M490.3,475.3l-0.4-0.1L490.3,475.3z M488.2,474.8l0.4,0.1L488.2,474.8z
	 M486.6,474.2l0.3,0.1L486.6,474.2z M485.2,473.4l0.3,0.2L485.2,473.4z M484.1,472.5l0.2,0.1L484.1,472.5z M483,471.5L483,471.5
	L483,471.5z M482.4,448l-0.1,0.1L482.4,448z M494.2,452.6h0.3H494.2z M492.9,452.9l0.4-0.1L492.9,452.9z M491.9,453.4l0.4-0.2
	L491.9,453.4z M491.3,453.9l0.1-0.1L491.3,453.9z M490.7,454.9l0.1-0.2L490.7,454.9z M490.4,456.1V456V456.1z M507.8,465.7h-0.2
	H507.8z M481,450.9l0.2-0.5L481,450.9z M480.6,452.2l0.1-0.4L480.6,452.2z M481.5,449.6l0.2-0.4L481.5,449.6z M509.2,466.1L509,466
	L509.2,466.1z M510.6,466.6l-0.3-0.1L510.6,466.6z M511.8,467.3l-0.2-0.1L511.8,467.3z M512.9,468.1L512.9,468.1L512.9,468.1z
	 M513.1,468.4L513.1,468.4l-1-0.8l-0.2-0.1l-1-0.6l-0.2-0.1l-1.2-0.5l-0.2-0.1l-1.4-0.4h-0.1c-1.1-0.2-2.3-0.4-3.5-0.4H496
	c-1.3,0-2.4-0.1-3.3-0.4l-0.3-0.1l-0.6-0.4l-0.2-0.1c-0.9-0.7-1.4-2-1.4-4.2v-2.6v-0.7v-0.7l0.1-0.6l0.2-0.6l0.2-0.5l0.3-0.4
	l0.3-0.4l0.2-0.2l0.7-0.5l0.3-0.1l0.8-0.3h0.3l1-0.1h0.2h1.4h1c2.6,0,13.2,0.3,17.9,0.7l0,0v-8l0,0c-4.4-1.3-11.8-2-17.7-2.1h-0.1
	h-1.5h-1.3h-0.4c-0.9,0-1.8,0.1-2.6,0.2l-0.6,0.1l-2.2,0.4l-0.6,0.2l-1.9,0.7l-0.4,0.2l-1.5,1l-0.2,0.1c-2.8,2.3-4.2,5.8-4.2,10.8
	v4.6c0,2.4,0.2,5.8,2.1,8.8l0.6,0.8l0.2,0.3l0.7,0.7l0.3,0.4l0.8,0.6l0.4,0.3l0.9,0.5l0.4,0.2l1.1,0.5l0.4,0.2l1.4,0.4l0.3,0.1
	c1.3,0.3,2.7,0.4,4.2,0.4h8.2c4,0,4.8,2,4.8,5v2.8l-0.1,1.1v0.2l-0.3,0.8l-0.1,0.3l-0.6,0.7l-0.1,0.1l-0.9,0.6
	c-1.3,0.7-3.1,0.8-4.4,0.8c-6.9,0-15.8-0.5-18.6-0.8l0,0v8l0,0c5.4,1.6,11.2,2.2,20.7,2.2h0.4l2.5-0.1l0.6-0.1l2.1-0.4l0.5-0.1
	l1.9-0.7l0.5-0.2l1.5-0.9l0.2-0.1l1.6-1.6l0.3-0.3l0.5-0.7l0.3-0.5l0.4-0.8l0.3-0.6l0.3-0.9l0.2-0.6l0.3-1.3l0.1-0.4
	c0.2-1.2,0.3-2.6,0.3-4v-3.6c0-2.6-0.4-6.3-2.4-9.3L513.1,468.4z"/>
<path class="st0" d="M531.8,494.6l-0.4-0.3L531.8,494.6z M529.9,493.1L529.9,493.1L529.9,493.1z M533.6,495.6l-0.5-0.2L533.6,495.6z
	 M535.2,496.2l-0.4-0.1L535.2,496.2z M541.5,443c-1.8,0-3.4,0.2-4.9,0.5l-0.3,0.1l-1.7,0.5l-0.8,0.3l-1.1,0.4l-0.9,0.5l-0.8,0.5
	l-0.6,0.5l-0.9,0.7l-0.2,0.2c-0.8,0.8-1.6,1.8-2.2,2.8c-0.7,1.1-1.2,2.4-1.7,3.9v0.2l-0.6,2l-0.1,0.5l-0.4,1.8l-0.1,0.7l-0.3,1.9
	l-0.1,0.6c-0.3,2.5-0.4,5.2-0.4,8.3c0,8.9,1.3,15.4,4,19.9c3,4.9,7.6,7.3,14.2,7.3h2h0.6c1.2,0,2.3,0,3.4-0.1l1.5-0.1
	c1.1-0.1,2.1-0.2,3.1-0.3l1.3-0.2c1-0.1,2-0.3,2.9-0.5l1-0.2l2.4-0.6l0.5-0.1l0,0v-7.9l0,0c-0.1,0-8.6,0.6-16.2,0.6
	c-4.1,0-6.8-1.4-8.3-4.4c-1.4-2.7-2-6.8-2-13.3c0-8,0.7-12.5,2.4-15c1.6-2.4,4.2-2.8,8-2.8c5.7,0,12.4,0.6,16,1h0.2l0,0v-8l0,0
	C554.2,443.7,548.8,443,541.5,443"/>
<rect x="568.8" y="443.6" class="st0" width="10.2" height="53.2"/>
<path class="st0" d="M598.9,486l-0.1-0.2L598.9,486z M599.4,486.6l-0.1-0.1L599.4,486.6z M591,494.2L591,494.2l0.2,0.2L591,494.2z
	 M589.7,492.7l0.1,0.1L589.7,492.7z M588.3,488.6v0.2V488.6z M588.4,452.1v0.2V452.1z M591,446.5L591,446.5L591,446.5L591,446.5z
	 M599.8,443.6h-0.3c-1.1,0-2.4,0.1-3.7,0.4l0,0l-1,0.3l0,0c-1.2,0.4-2.4,1-3.4,1.9l-0.2,0.2l-0.2,0.2l-0.2,0.2l-1,1.3l-0.2,0.4
	l-0.6,1.3l-0.2,0.5l-0.4,1.7l-0.1,0.7l-0.1,1.6v0.4v31.7v0.5l0.1,1.6l0.1,0.8l0.4,1.4l0.2,0.5l0.7,1.4l0.3,0.5l1,1.2l0.1,0.1
	l0.5,0.4l0.2,0.2l0.7,0.5l0.3,0.2l0.7,0.4l0.3,0.1l0.7,0.3l0.4,0.1l0.7,0.2l0.3,0.1l0.8,0.2h0.2c1,0.1,1.9,0.2,2.8,0.2h1
	c0.2,0,18.7-0.7,22.8-1.2l0,0v-8.4H603c-1.1,0-2.1,0-3-0.5l-0.6-0.5v-0.1L599,486v-0.1l-0.3-1.9v-8.3l21.6-0.7l0,0v-8.5l-21.6-0.7
	v-8.3c0-2,0-4.1,3.8-4.1h21.1v-8.5l0,0C618.7,444.1,600,443.6,599.8,443.6"/>
<polygon class="st0" points="662,477.9 640.9,443.5 630.5,443.5 630.5,496.8 640.8,496.8 640.8,462.8 662,496.8 672.3,496.8
	672.3,443.5 662,443.5 "/>
<path class="st0" d="M691.3,496.2l-0.4-0.1L691.3,496.2z M687.8,494.5l-0.4-0.2L687.8,494.5z M689.6,495.5l-0.5-0.2L689.6,495.5z
	 M697.5,443c-1.8,0-3.4,0.2-4.9,0.5l-0.3,0.1l-1.7,0.5l-0.8,0.3l-1.1,0.4l-0.9,0.5l-0.8,0.5l-0.7,0.5l-0.9,0.7l-0.3,0.3
	c-0.8,0.8-1.5,1.7-2.2,2.8c-0.7,1.1-1.2,2.4-1.7,3.8l-0.1,0.3l-0.5,1.9l-0.1,0.7l-0.4,1.7l-0.1,0.9l-0.3,1.7l-0.1,0.8l-0.2,2.1v0.2
	c-0.1,1.8-0.2,3.8-0.2,5.9c0,8.9,1.3,15.4,4,19.9c3,4.9,7.6,7.3,14.2,7.3h2h0.6c1.2,0,2.3,0,3.4-0.1l1.5-0.1
	c1.1-0.1,2.1-0.2,3.1-0.3l1.3-0.2c1-0.1,2-0.3,2.9-0.5l1-0.2l2.4-0.6l0.5-0.1l0,0v-7.9l0,0c-0.1,0-8.6,0.6-16.2,0.6
	c-4.1,0-6.8-1.4-8.3-4.4c-1.4-2.7-2-6.8-2-13.3c0-8,0.7-12.5,2.4-15c1.6-2.4,4.2-2.8,8-2.8c5.7,0,12.4,0.6,16,1h0.2l0,0v-8l0,0
	C710.3,443.7,704.9,443,697.5,443"/>
<path class="st0" d="M733.3,484.9L733.3,484.9z M733.7,486l-0.1-0.2L733.7,486z M734.2,486.6l-0.1-0.1L734.2,486.6z M725.8,494.2
	L725.8,494.2l0.2,0.2L725.8,494.2z M724.5,492.7l0.1,0.1L724.5,492.7z M723.1,488.6v0.3V488.6z M723.1,452v0.2V452z M725.8,446.5
	L725.8,446.5L725.8,446.5L725.8,446.5z M734.5,443.6h-0.3c-1.1,0-2.4,0.1-3.7,0.4l0,0l-1,0.3l0,0c-1.2,0.4-2.4,1-3.4,1.9l-0.2,0.2
	l-0.2,0.2l-0.2,0.2l-1,1.3l-0.2,0.4l-0.6,1.3l-0.2,0.5l-0.4,1.7l-0.1,0.7l-0.1,1.6v0.5v31.7v0.5l0.1,1.5l0.1,0.8l0.4,1.4l0.2,0.5
	l0.7,1.4l0.3,0.5l1,1.2l0.1,0.1l0.5,0.4l0.2,0.1l0.7,0.5l0.3,0.1l0.7,0.4l0.3,0.1l0.7,0.3l0.3,0.1l0.7,0.2l0.3,0.1l0.8,0.2h0.2
	c1,0.1,1.9,0.2,2.8,0.2h1c0.2,0,18.7-0.7,22.8-1.2l0,0v-8.4h-20.5h-0.1c-1,0-2.1,0-2.9-0.5l-0.6-0.5v-0.1l-0.4-0.7v-0.1l-0.3-2v-8.3
	l21.6-0.7l0,0v-8.5l-21.6-0.7v-8.3c0-2,0-4.1,3.8-4.1h21.1v-8.5l0,0C753.4,444.1,734.7,443.6,734.5,443.6"/>
<path class="st0" d="M810.4,495.3L810.4,495.3L810.4,495.3z M808.1,496.4l0.2-0.1L808.1,496.4z M805.7,496.9h0.2H805.7z M801.1,497
	L801.1,497L801.1,497L801.1,497z M799.3,496.7l0.3,0.1L799.3,496.7z M797.8,496.2l0.3,0.1L797.8,496.2z M796.3,495.6l0.3,0.1
	L796.3,495.6z M795,494.9l0.2,0.1L795,494.9z M793.7,494l0.2,0.2L793.7,494z M792.6,493l0.2,0.2L792.6,493z M794.5,458.9
	L794.5,458.9L794.5,458.9z M793.9,457.8l-0.1-0.3L793.9,457.8z M793.3,456.1l0.1,0.4L793.3,456.1z M793,454.8l0.1,0.4L793,454.8z
	 M792.9,453.4v0.4V453.4z M793,452.1v0.4V452.1z M793.3,450.9l-0.1,0.3L793.3,450.9z M793.7,449.7L793.7,449.7v0.1V449.7z
	 M794.3,448.5l-0.1,0.1L794.3,448.5z M795,447.5L795,447.5L795,447.5z M795.8,446.5L795.8,446.5L795.8,446.5z M796.7,445.7
	L796.7,445.7L796.7,445.7z M805.8,453.1l0.2-0.1L805.8,453.1z M804.9,453.7l0.2-0.2L804.9,453.7z M804.5,454.6l0.1-0.4L804.5,454.6z
	 M804.5,455.6l-0.1-0.4L804.5,455.6z M804.9,456.7l-0.1-0.2L804.9,456.7z M806.6,487l-0.1,0.1L806.6,487z M805.5,487.5L805.5,487.5
	L805.5,487.5z M803.3,487.6l-0.5-0.1L803.3,487.6z M802.1,487.3l-0.5-0.2L802.1,487.3z M801,486.7l-0.4-0.3L801,486.7z M799.9,485.9
	l-0.4-0.4L799.9,485.9z M798.1,478.7l0.1-0.1L798.1,478.7z M806.8,486.9l-0.5,0.3l-0.6,0.3l-0.5,0.2l-0.6,0.1l-0.5,0.1l0,0l-0.5-0.1
	l-0.9-0.2l-0.3-0.1l-1-0.4l-0.2-0.1l-1-0.7l-0.1-0.1l-1-1l-1.2-2.1l-0.1-0.2l-0.2-0.8V482l-0.1-0.9c0.1-1.6,1-3.2,2.8-4.8l3.8-3.3
	l7.4,9.7l-3.7,3.6l-0.3,0.3L806.8,486.9z M811.4,443.4L811.4,443.4L811.4,443.4z M827.1,480.3l4.4-7.8l0,0l-3.6-4.3l0,0l-8.8,8.3
	l-12.3-16.8c-1-1.3-1.6-2.4-2-3.4l-0.1-0.3l-0.2-0.9v-0.3l0.1-0.6l0.2-0.3l0.3-0.4l0.3-0.2l0.7-0.3l0,0c0.8-0.2,1.8-0.4,3.1-0.4h12
	v-7.4l0,0c-5.1-1.2-11.5-2.7-20.2-1.5c-1.5,0.2-2.9,0.8-4.1,1.8l0,0l-0.8,0.7l-0.1,0.1l-0.7,0.8l-0.1,0.2l-0.6,0.8l-0.1,0.2
	l-0.5,0.9l-0.1,0.2l-0.2,0.3l-0.2,0.6l-0.1,0.3l-0.3,1v0.2l-0.1,1.1v0.2v1.1v0.2l0.2,1.2v0.2l0.4,1.2l0.1,0.2c0.4,1,0.9,1.9,1.6,2.9
	l3.7,5.4l-5,4.4c-3.2,2.7-5.3,6.2-5.9,9.8c-0.7,3.8,0.2,7.7,2.7,11.1c0.7,0.9,1.4,1.8,2.2,2.6l0.2,0.2l1,0.8l0.3,0.2l1,0.6l0.3,0.2
	l1.1,0.5l0.3,0.1l1.1,0.4l0.3,0.1l1.2,0.3l0.4,0.1l0.7,0.1h0.4l1,0.1h0.7h0.3l1.9-0.1l0.8-0.1l1.8-0.4l0.7-0.2l1.7-0.7l0.5-0.3
	l1.4-1l0.2-0.1l4.7-4.2l5.2,7h12l-9.9-13.3L827.1,480.3z"/>
<polygon class="st0" points="848.6,453 863.1,453 863.1,496.8 873.4,496.8 873.4,453 888.2,453 888.2,443.6 848.6,443.6 "/>
<path class="st0" d="M903.9,486l-0.1-0.1L903.9,486z M904.4,486.6l-0.1-0.1L904.4,486.6z M896,494.2L896,494.2L896,494.2L896,494.2z
	 M894.8,492.7l0.1,0.1L894.8,492.7z M893.4,488.7v0.2V488.7z M893.4,452.1v0.1V452.1z M896.1,446.5L896.1,446.5L896.1,446.5
	L896.1,446.5z M904.8,443.6h-0.3c-1.1,0-2.4,0.1-3.7,0.4l0,0l-1,0.3h-0.1c-1.2,0.4-2.3,1-3.3,1.8l-0.3,0.2l-0.2,0.2l-0.2,0.2l-1,1.3
	l-0.2,0.3l-0.6,1.3l-0.2,0.5l-0.4,1.7l-0.1,0.7l-0.1,1.7v0.4v31.7v0.5l0.1,1.6l0.1,0.7l0.4,1.5l0.1,0.5l0.7,1.4l0.3,0.5l1,1.2
	l0.1,0.1l0.5,0.4l0.2,0.2l0.7,0.5l0.3,0.2l0.7,0.4l0.3,0.1l0.7,0.3l0.4,0.1l0.7,0.2l0.3,0.1l0.8,0.2h0.2c1,0.1,1.9,0.2,2.8,0.2h1
	c0.2,0,18.7-0.7,22.8-1.2l0,0v-8.4h-20.5h-0.1c-1,0-2.1,0-2.9-0.5l-0.6-0.5v-0.1l-0.4-0.6v-0.1l-0.3-1.9v-8.3l21.6-0.7l0,0v-8.5
	l-21.6-0.7v-8.3c0-2,0-4.1,3.8-4.1h21.1v-8.5l0,0C923.7,444.1,905,443.6,904.8,443.6"/>
<path class="st0" d="M942.7,494.6l-0.5-0.3L942.7,494.6z M940.7,493.1l0.1,0.1L940.7,493.1z M944.5,495.6l-0.6-0.3L944.5,495.6z
	 M946.2,496.3l-0.4-0.1L946.2,496.3z M952.3,443c-1.8,0-3.4,0.2-4.9,0.5l-0.3,0.1l-1.7,0.5l-0.8,0.3l-1.1,0.4l-0.9,0.5l-0.8,0.5
	l-0.6,0.5l-0.9,0.7l-0.3,0.3c-0.8,0.8-1.5,1.7-2.2,2.8c-0.7,1.1-1.2,2.4-1.7,3.8l-0.1,0.3l-0.5,1.9l-0.1,0.7l-0.3,1.7l-0.1,0.9
	l-0.2,1.8l-0.1,0.8l-0.2,2.1v0.1c-0.1,1.8-0.2,3.8-0.2,5.9c0,8.9,1.3,15.4,4,19.9c3,4.9,7.6,7.3,14.2,7.3h2h0.6c1.2,0,2.3,0,3.4-0.1
	l1.5-0.1c1.1-0.1,2.1-0.2,3.1-0.3l1.3-0.2c1-0.1,2-0.3,2.9-0.5l1-0.2l2.4-0.6l0.5-0.1l0,0v-7.9l0,0c-0.1,0-8.6,0.6-16.2,0.6
	c-4.1,0-6.8-1.4-8.3-4.4c-1.4-2.7-2-6.8-2-13.3c0-8,0.7-12.5,2.4-15c1.6-2.4,4.1-2.8,8-2.8c5.6,0,12.4,0.6,16,1h0.2l0,0v-8l0,0
	C965.1,443.7,959.7,443,952.3,443"/>
<polygon class="st0" points="1006.5,466.4 988.2,466.4 988.2,443.6 977.9,443.6 977.9,496.8 988.2,496.8 988.2,475.7 1006.5,475.7
	1006.5,496.8 1016.7,496.8 1016.7,443.6 1006.5,443.6 "/>
<polygon class="st0" points="1056.6,477.9 1035.5,443.5 1025.1,443.5 1025.1,496.8 1035.4,496.8 1035.4,462.8 1056.7,496.8
	1066.9,496.8 1066.9,443.5 1056.6,443.5 "/>
<path class="st0" d="M1110.3,446.5l0.4,0.4L1110.3,446.5z"/>
<path class="st0" d="M1114.2,489.1L1114.2,489.1L1114.2,489.1z M1106,444.3l0.3,0.1L1106,444.3z M1086.9,496.3L1086.9,496.3
	L1086.9,496.3z M1083.3,495l-0.2-0.1L1083.3,495z M1085.1,495.7l-0.3-0.1L1085.1,495.7z M1085.4,444.6L1085.4,444.6L1085.4,444.6z
	 M1104.3,485.2l-0.3,0.3l-0.5,0.4l-0.3,0.2l-0.6,0.3l-0.4,0.2l-0.4,0.2l-0.8,0.3h-0.2c-1.2,0.3-2.8,0.5-4.8,0.5
	c-1.6,0-3-0.1-4.2-0.3l0,0l-1.1-0.3h-0.1c-1.5-0.4-2.7-1.2-3.6-2.5c-1.6-2.3-2.2-6.3-2.2-14c0-8.3,0.8-12.9,2.7-15.3
	c1.9-2.4,4.9-2.6,8.6-2.6c4.3,0,6.9,0.4,8.7,2.8c1.8,2.4,2.6,7,2.6,15.2c0,7.4-0.7,11.5-2.4,13.9l-0.3,0.4L1104.3,485.2z
	 M1114.3,451.6l-0.2-0.5L1114.3,451.6z M1115.4,454.2l-0.3-0.8L1115.4,454.2z M1116.8,460.2l-0.2-1.1L1116.8,460.2z M1117.2,463.3
	l-0.1-0.7L1117.2,463.3z M1116.2,457.1l-0.2-1.1L1116.2,457.1z M1116.7,481.4l0.1-0.5L1116.7,481.4z M1116,484.3l0.1-0.6L1116,484.3
	z M1115.2,486.9l0.1-0.4L1115.2,486.9z M1117.5,470.5c0-6.1-0.5-10.9-1.6-14.8l0,0c-0.2-0.9-0.5-1.8-0.8-2.6l-0.1-0.2l-0.9-2
	l-0.1-0.2c-0.7-1.2-1.5-2.3-2.4-3.2l-0.7-0.6l0.4,0.4l-1.1-0.9l0.2,0.1l-0.7-0.5l0.1,0.1l-1.2-0.7l0.2,0.1l-0.7-0.4l0,0l-1-0.4
	l0.3,0.1c-0.8-0.4-1.7-0.7-2.7-0.9c-2.3-0.5-4.9-0.8-8.7-0.8c-6.5,0-11.6,0.7-15.3,4.3c-1,0.9-1.8,2.1-2.5,3.3l-0.1,0.1
	c-2.4,4.3-3.6,10.7-3.6,19.6c0,4.4,0.3,8.2,0.9,11.4l0.1,0.4l0.6,2.5l0.2,0.7l0.6,1.8l0.3,0.7l0.7,1.5l0.3,0.5
	c0.6,1.1,1.4,2.1,2.2,2.9c3.6,3.5,8.7,4.2,15.7,4.2c1.4,0,2.7-0.1,4-0.2l1.2-0.1l1.3-0.2l2.3-0.4l0.5-0.1l0.3-0.1l0.8-0.2l0.7-0.2
	l0.7-0.3l-0.4,0.1c1-0.4,1.9-0.9,2.8-1.5l-0.2,0.1l0.2-0.2l0.2-0.1l1-0.8l-0.3,0.2l0.4-0.3l-0.1,0.1l0.4-0.3
	c1.4-1.4,2.6-3.2,3.4-5.5l0,0C1116.7,483.1,1117.5,477.7,1117.5,470.5"/>
<path class="st0" d="M1107.4,444.9l0.7,0.3L1107.4,444.9z"/>
<path class="st0" d="M1108.8,445.5l0.8,0.5L1108.8,445.5z"/>
<path class="st0" d="M1135.4,484.9L1135.4,484.9L1135.4,484.9z M1135.8,486l-0.1-0.2L1135.8,486z M1136.3,486.6l-0.1-0.1
	L1136.3,486.6z M1139.6,487.4c-1,0-2.1,0-2.9-0.5l-0.6-0.5v-0.1l-0.4-0.7v-0.1l-0.3-2v-40.1H1125v42.9v0.3l0.2,2.1v0.4l0.5,1.9
	l0.1,0.3l0.9,1.6l0.2,0.2l1.3,1.3l0.1,0.1l0.2,0.1l1.1,0.7l0.4,0.2l1.4,0.5l0.5,0.1l1.6,0.3l0.5,0.1l1.7,0.1h0.4h22v-9.4h-18.5h0
	V487.4z"/>
<path class="st0" d="M1164.2,454.6l0.4-1.3L1164.2,454.6z M1163.4,457.5l0.4-1.6L1163.4,457.5z M1162.8,460.6l0.2-1.6L1162.8,460.6z
	 M1162.4,463.6l0.1-1.2L1162.4,463.6z M1165.2,451.9l0.4-0.8L1165.2,451.9z M1166.8,449.2l-0.1,0.2L1166.8,449.2z M1193.6,444.3
	l0.3,0.1L1193.6,444.3z M1174.5,496.3L1174.5,496.3L1174.5,496.3z M1170.9,495l-0.2-0.1L1170.9,495z M1172.7,495.7l-0.4-0.1
	L1172.7,495.7z M1173,444.6L1173,444.6L1173,444.6z M1191.9,485.2l-0.3,0.3l-0.5,0.4l-0.3,0.2l-0.6,0.4l-0.4,0.2l-0.4,0.2l-0.8,0.3
	h-0.2c-1.2,0.3-2.8,0.5-4.8,0.5c-1.6,0-3-0.1-4.2-0.3l0,0l-1.1-0.3h-0.1c-1.5-0.4-2.7-1.2-3.6-2.5c-0.6-0.9-1.1-2-1.4-3.4
	c-0.6-2.4-0.8-5.8-0.8-10.6c0-8.3,0.8-12.9,2.7-15.3s4.9-2.6,8.6-2.6c4.3,0,6.9,0.4,8.7,2.8c1.8,2.4,2.6,7,2.6,15.2
	c0,7.4-0.7,11.5-2.4,13.9l-0.3,0.4L1191.9,485.2z M1201.9,451.5l-0.2-0.4L1201.9,451.5z M1203,454.1l-0.2-0.7L1203,454.1z
	 M1204.4,460l-0.1-1L1204.4,460z M1204.7,463v-0.5V463z M1203.8,457l-0.2-0.9L1203.8,457z M1204.3,481.4v-0.3V481.4z M1203.6,484.3
	l0.1-0.4L1203.6,484.3z M1202.8,486.9l0.1-0.3L1202.8,486.9z M1201.8,489.1L1201.8,489.1L1201.8,489.1z M1202.7,487.2l0.1-0.1
	c0.3-0.8,0.6-1.6,0.8-2.5l0,0c1-3.7,1.5-8.3,1.5-14.1c0-6.1-0.5-10.9-1.6-14.8v-0.1c-0.3-0.9-0.5-1.7-0.8-2.5l-0.1-0.3l-0.9-2
	l-0.2-0.3c-0.7-1.2-1.5-2.3-2.4-3.2l-0.7-0.6l0.4,0.4l-1-0.9l0.2,0.1l-0.7-0.5l0.1,0.1l-1.2-0.7l0.2,0.1l-0.7-0.4l0,0l-1-0.4
	l0.3,0.1c-0.8-0.4-1.7-0.7-2.7-0.9c-2.3-0.5-4.9-0.8-8.7-0.8c-6.5,0-11.6,0.7-15.3,4.3c-1,0.9-1.8,2.1-2.5,3.4l0,0
	c-2.4,4.3-3.6,10.7-3.6,19.6c0,4.4,0.3,8.2,0.9,11.4l0.1,0.4l0.6,2.5l0.2,0.6l0.6,1.9l0.3,0.7l0.7,1.5l0.3,0.5
	c0.6,1.1,1.4,2.1,2.2,2.9c3.6,3.5,8.7,4.2,15.7,4.2c1.4,0,2.7-0.1,4-0.2l1.2-0.1l1.3-0.2l2.3-0.4l0.4-0.1l0.3-0.1l0.8-0.2l0.7-0.3
	l0.7-0.3l-0.4,0.1c1-0.4,1.9-0.9,2.8-1.5l-0.2,0.1l0.2-0.2l0.2-0.1l1-0.9l-0.3,0.2l0.4-0.3l-0.1,0.1l0.3-0.3c0.9-0.9,1.7-2,2.4-3.3
	l0.1-0.1L1202.7,487.2z"/>
<path class="st0" d="M1197.9,446.5l0.4,0.4L1197.9,446.5z"/>
<path class="st0" d="M1196.4,445.5l0.8,0.5L1196.4,445.5z"/>
<path class="st0" d="M1195,444.9l0.7,0.3L1195,444.9z"/>
<path class="st0" d="M1226.9,497.1h1.1h-0.7H1226.9z M1223.8,496.9l0.7,0.1L1223.8,496.9z M1221.3,496.2l0.4,0.1L1221.3,496.2z
	 M1218.7,495l0.2,0.2L1218.7,495z M1211.1,463.6L1211.1,463.6L1211.1,463.6z M1211.4,460.4l-0.1,0.7L1211.4,460.4z M1211.8,457.8
	l-0.2,1L1211.8,457.8z M1212.4,455.4l-0.3,1L1212.4,455.4z M1213,453.5l-0.3,0.9L1213,453.5z M1213.5,452l-0.2,0.3L1213.5,452z
	 M1216.6,447.3L1216.6,447.3L1216.6,447.3z M1218.2,445.9l-0.2,0.1L1218.2,445.9z M1220,444.8l-0.3,0.1L1220,444.8z M1221.9,444
	l-0.3,0.1L1221.9,444z M1223.8,443.4L1223.8,443.4L1223.8,443.4z M1241.9,466.6h1.9H1241.9z M1238.3,466.9l2.1-0.2L1238.3,466.9z
	 M1235,467.4l2.2-0.4L1235,467.4z M1232.2,468.2l2.2-0.7L1232.2,468.2z M1244.7,466.5c-5.8,0-9.8,0.6-12.7,1.8v6.5h7.4v9.5
	c0,0-4.1,3.3-9,3.3h-0.2c-4,0-6.1-1.1-7.4-3.6c-1.2-2.5-1.7-6.5-1.7-13.9c0-7.3,0.5-11.4,1.8-13.9c1.4-2.8,3.8-4.1,7.8-4.1
	c6.8,0,14.2,0.8,17,1.1l1.1,0.1l0,0v-7.9l0,0c-7.4-1.8-12-2.3-20.5-2.3c-1.8,0-3.4,0.2-4.9,0.5h-0.1l-1.9,0.6l-0.3,0.1l-1.5,0.7
	l-0.4,0.2l-1.3,0.8l-0.3,0.3l-1.1,1l-0.2,0.2c-0.8,0.9-1.5,1.9-2.1,3c-2.3,4.3-3.3,10.2-3.3,19.3c0,5.4,0.3,11.1,1.7,15.9v-0.1
	c0.7,2.6,1.8,4.8,3.3,6.7l-0.4-0.5l0.7,0.8l0.2,0.2l0.2,0.2l-0.1-0.1l0.6,0.6l-0.2-0.1l-0.3-0.3l0.3,0.4l0.4,0.3l1.2,0.9l0.7,0.5
	l2,0.9l1.1,0.3l1.3,0.3l1.3,0.2l1.5,0.1l0.9,0.1h1c6.1-0.2,9-1.7,11.3-3.9l2.8,3.6h7.3v-30.1l0,0
	C1247.9,466.5,1246.2,466.5,1244.7,466.5"/>
<path class="st0" d="M1212.6,485.8l0.5,1.5L1212.6,485.8z"/>
<polygon class="st0" points="1288.9,443.6 1277.4,469.1 1267,443.6 1267,443.6 1255.9,443.6 1272.2,480.3 1272.2,496.8
	1282.4,496.8 1282.4,480.3 1300,443.6 1300,443.6 "/>
<path class="st0" d="M393,140.1v133.4c0,9.5,7.7,17.1,17.2,17.1h184V257H426.6V156.5h167.7V123h-184C400.7,123,393,130.7,393,140.1"
	/>
<path class="st0" d="M1298.3,156.5V123h-167.6V55.9h-33.5v217.6c0,9.5,7.7,17.2,17.2,17.2h184v-33.6h-167.6V156.5H1298.3z"/>
<path class="st0" d="M862.4,140.1v66.3c0,9.5,7.7,17.2,17.1,17.2H1030v33.5H862.4v33.6h184.1c9.5,0,17.1-7.7,17.1-17.1v-66.3
	c0-9.5-7.7-17.2-17.1-17.2H895.9v-33.5h167.7V123h-184C870.1,123,862.4,130.7,862.4,140.1"/>
<path class="st0" d="M795.4,257.1H661.3V156.5h134.1V257.1z M811.8,123H644.9c-9.5,0-17.2,7.7-17.2,17.2v133.4
	c0,9.5,7.7,17.2,17.2,17.2h166.9c9.5,0,17.2-7.7,17.2-17.2V140.1C828.9,130.7,821.2,123,811.8,123"/>
<path class="st0" d="M325.6,253.1l-134.2,67.3L90.9,270.1v-62.3l-32.9,20v52c0,3.2,0.9,6.3,2.5,9c1.7,2.7,4,4.9,6.9,6.3l116.3,58.8
	c2.4,1.2,5.1,1.8,7.7,1.8c2.6,0,5.3-0.6,7.7-1.8l117.1-58.4c2.9-1.4,5.3-3.6,6.9-6.3c1.7-2.7,2.6-5.8,2.6-9L325.6,253.1L325.6,253.1
	z"/>
<path class="st0" d="M323.1,124.8c-1.7-2.7-4-4.9-6.9-6.3L199.9,59.8c-4.8-2.4-10.6-2.4-15.4,0l-117,58.4c-2.9,1.4-5.3,3.6-6.9,6.3
	c-1.7,2.7-2.6,5.9-2.6,9v26.9l0,0l134.2-67.3l100.5,50.4v62.3l32.9-20.1v-52C325.6,130.7,324.8,127.6,323.1,124.8"/>
</svg>
